<svg width="15" height="15" viewBox="0 0 15 15" fill="none" xmlns="http://www.w3.org/2000/svg">
<path d="M4.1369 7.11797L5.29498 6.63148L4.80284 5.47578L4.42534 4.58929L5.33533 4.95574L6.45192 5.40537L6.94334 4.30653L7.464 3.14232L7.90029 4.18111L8.38437 5.33367L9.53689 4.84952L10.4519 4.46515L10.0322 5.49295L9.55727 6.65584L10.7225 7.12505L11.5773 7.46927L10.8053 7.76412L9.59873 8.22501L10.0989 9.41588L10.4518 10.2561L9.56105 9.90676L8.41348 9.45673L7.94746 10.5979L7.47584 11.7528L6.95233 10.5235L6.48072 9.41597L5.35624 9.84549L4.28285 10.2555L4.66832 9.39355L5.20311 8.19776L3.9836 7.71952L3.32228 7.46018L4.1369 7.11797Z" fill="white" stroke="white" stroke-width="2.5"/>
</svg>
